<svg xmlns="http://www.w3.org/2000/svg" xmlns:xlink="http://www.w3.org/1999/xlink" width="500" zoomAndPan="magnify" viewBox="0 0 375 374.999991" height="500" preserveAspectRatio="xMidYMid meet" version="1.0"><defs><clipPath id="4011e2121e"><path d="M 71 95.15625 L 374.25 95.15625 L 374.25 279.65625 L 71 279.65625 Z M 71 95.15625 " clip-rule="nonzero"/></clipPath></defs><path fill="#000000" d="M 5.441406 196.785156 L 47.941406 230.417969 L 47.941406 143.988281 L 5.441406 177.617188 C -0.75 182.558594 -0.75 191.90625 5.441406 196.785156 Z M 5.441406 196.785156 " fill-opacity="1" fill-rule="nonzero"/><g clip-path="url(#4011e2121e)"><path fill="#f64c3b" d="M 357.226562 95.296875 L 121.453125 95.296875 C 113.59375 95.296875 105.976562 97.976562 99.785156 102.855469 L 71.273438 125.417969 L 71.273438 248.988281 L 99.785156 271.546875 C 105.917969 276.429688 113.59375 279.105469 121.453125 279.105469 L 357.226562 279.105469 C 366.570312 279.105469 374.132812 271.546875 374.132812 262.203125 L 374.132812 112.203125 C 374.132812 102.855469 366.570312 95.296875 357.226562 95.296875 Z M 163.65625 250.894531 C 163.65625 253.394531 161.632812 255.417969 159.132812 255.417969 L 139.308594 255.417969 C 136.808594 255.417969 134.785156 253.394531 134.785156 250.894531 L 134.785156 231.070312 C 134.785156 228.570312 136.808594 226.546875 139.308594 226.546875 L 159.132812 226.546875 C 161.632812 226.546875 163.65625 228.570312 163.65625 231.070312 Z M 163.65625 143.394531 C 163.65625 145.894531 161.632812 147.917969 159.132812 147.917969 L 139.308594 147.917969 C 136.808594 147.917969 134.785156 145.894531 134.785156 143.394531 L 134.785156 123.570312 C 134.785156 121.070312 136.808594 119.046875 139.308594 119.046875 L 159.132812 119.046875 C 161.632812 119.046875 163.65625 121.070312 163.65625 123.570312 Z M 220.5 250.894531 C 220.5 253.394531 218.476562 255.417969 215.976562 255.417969 L 196.15625 255.417969 C 193.65625 255.417969 191.632812 253.394531 191.632812 250.894531 L 191.632812 231.070312 C 191.632812 228.570312 193.65625 226.546875 196.15625 226.546875 L 215.976562 226.546875 C 218.476562 226.546875 220.5 228.570312 220.5 231.070312 Z M 220.5 143.394531 C 220.5 145.894531 218.476562 147.917969 215.976562 147.917969 L 196.15625 147.917969 C 193.65625 147.917969 191.632812 145.894531 191.632812 143.394531 L 191.632812 123.570312 C 191.632812 121.070312 193.65625 119.046875 196.15625 119.046875 L 215.976562 119.046875 C 218.476562 119.046875 220.5 121.070312 220.5 123.570312 Z M 277.285156 250.894531 C 277.285156 253.394531 275.261719 255.417969 272.761719 255.417969 L 252.941406 255.417969 C 250.441406 255.417969 248.417969 253.394531 248.417969 250.894531 L 248.417969 231.070312 C 248.417969 228.570312 250.441406 226.546875 252.941406 226.546875 L 272.761719 226.546875 C 275.261719 226.546875 277.285156 228.570312 277.285156 231.070312 Z M 277.285156 143.394531 C 277.285156 145.894531 275.261719 147.917969 272.761719 147.917969 L 252.941406 147.917969 C 250.441406 147.917969 248.417969 145.894531 248.417969 143.394531 L 248.417969 123.570312 C 248.417969 121.070312 250.441406 119.046875 252.941406 119.046875 L 272.761719 119.046875 C 275.261719 119.046875 277.285156 121.070312 277.285156 123.570312 Z M 334.132812 250.894531 C 334.132812 253.394531 332.105469 255.417969 329.605469 255.417969 L 309.785156 255.417969 C 307.285156 255.417969 305.261719 253.394531 305.261719 250.894531 L 305.261719 231.070312 C 305.261719 228.570312 307.285156 226.546875 309.785156 226.546875 L 329.605469 226.546875 C 332.105469 226.546875 334.132812 228.570312 334.132812 231.070312 Z M 334.132812 143.394531 C 334.132812 145.894531 332.105469 147.917969 329.605469 147.917969 L 309.785156 147.917969 C 307.285156 147.917969 305.261719 145.894531 305.261719 143.394531 L 305.261719 123.570312 C 305.261719 121.070312 307.285156 119.046875 309.785156 119.046875 L 329.605469 119.046875 C 332.105469 119.046875 334.132812 121.070312 334.132812 123.570312 Z M 334.132812 143.394531 " fill-opacity="1" fill-rule="nonzero"/></g></svg>